<svg width="68" height="68" viewBox="0 0 68 68" fill="none" xmlns="http://www.w3.org/2000/svg">
<path d="M8 10H13.6667L15.0833 18.5M15.0833 18.5L19.3333 44H50.5L59 18.5H15.0833Z" stroke="white" stroke-width="4" stroke-linecap="round" stroke-linejoin="round"/>
<path d="M22.1673 58.9999C23.7321 58.9999 25.0007 57.7314 25.0007 56.1666C25.0007 54.6018 23.7321 53.3333 22.1673 53.3333C20.6025 53.3333 19.334 54.6018 19.334 56.1666C19.334 57.7314 20.6025 58.9999 22.1673 58.9999Z" stroke="white" stroke-width="3" stroke-linecap="round" stroke-linejoin="round"/>
<path d="M47.6673 58.9999C49.2321 58.9999 50.5007 57.7314 50.5007 56.1666C50.5007 54.6018 49.2321 53.3333 47.6673 53.3333C46.1025 53.3333 44.834 54.6018 44.834 56.1666C44.834 57.7314 46.1025 58.9999 47.6673 58.9999Z" stroke="white" stroke-width="3" stroke-linecap="round" stroke-linejoin="round"/>
</svg>
