<svg width="50" height="50" viewBox="0 0 50 50" fill="none" xmlns="http://www.w3.org/2000/svg">
<path d="M41.1457 20.8334C41.1457 20.419 40.9811 20.0216 40.6881 19.7286C40.3951 19.4355 39.9976 19.2709 39.5832 19.2709C39.1688 19.2709 38.7714 19.4355 38.4784 19.7286C38.1854 20.0216 38.0207 20.419 38.0207 20.8334H41.1457ZM11.9791 20.8334C11.9791 20.419 11.8145 20.0216 11.5214 19.7286C11.2284 19.4355 10.831 19.2709 10.4166 19.2709C10.0022 19.2709 9.60475 19.4355 9.31173 19.7286C9.0187 20.0216 8.85408 20.419 8.85408 20.8334H11.9791ZM42.6457 26.1043C42.7888 26.2578 42.9613 26.3809 43.153 26.4663C43.3446 26.5517 43.5515 26.5976 43.7613 26.6013C43.9711 26.605 44.1795 26.5664 44.3741 26.4878C44.5686 26.4093 44.7454 26.2923 44.8937 26.1439C45.0421 25.9955 45.1591 25.8188 45.2377 25.6243C45.3163 25.4297 45.3548 25.2213 45.3511 25.0115C45.3474 24.8017 45.3015 24.5948 45.2161 24.4031C45.1307 24.2115 45.0076 24.039 44.8541 23.8959L42.6457 26.1043ZM24.9999 6.25009L26.1041 5.14592C25.8111 4.85332 25.414 4.68896 24.9999 4.68896C24.5858 4.68896 24.1887 4.85332 23.8957 5.14592L24.9999 6.25009ZM5.14575 23.8959C4.99223 24.039 4.8691 24.2115 4.7837 24.4031C4.6983 24.5948 4.65238 24.8017 4.64868 25.0115C4.64498 25.2213 4.68357 25.4297 4.76216 25.6243C4.84074 25.8188 4.95771 25.9955 5.10608 26.1439C5.25446 26.2923 5.43119 26.4093 5.62575 26.4878C5.82031 26.5664 6.0287 26.605 6.2385 26.6013C6.4483 26.5976 6.6552 26.5517 6.84687 26.4663C7.03853 26.3809 7.21103 26.2578 7.35408 26.1043L5.14575 23.8959ZM14.5832 45.3126H35.4166V42.1876H14.5832V45.3126ZM41.1457 39.5834V20.8334H38.0207V39.5834H41.1457ZM11.9791 39.5834V20.8334H8.85408V39.5834H11.9791ZM44.8541 23.8959L26.1041 5.14592L23.8957 7.35426L42.6457 26.1043L44.8541 23.8959ZM23.8957 5.14592L5.14575 23.8959L7.35408 26.1043L26.1041 7.35426L23.8957 5.14592ZM35.4166 45.3126C36.936 45.3126 38.3933 44.709 39.4677 43.6346C40.5421 42.5601 41.1457 41.1029 41.1457 39.5834H38.0207C38.0207 41.0209 36.8541 42.1876 35.4166 42.1876V45.3126ZM14.5832 42.1876C13.1457 42.1876 11.9791 41.0209 11.9791 39.5834H8.85408C8.85408 41.1029 9.45769 42.5601 10.5321 43.6346C11.6065 44.709 13.0638 45.3126 14.5832 45.3126V42.1876Z" fill="black"/>
</svg>
