<svg width="50" height="50" viewBox="0 0 50 50" fill="none" xmlns="http://www.w3.org/2000/svg">
<path d="M25.0002 5.2085C27.4504 5.20775 29.8363 5.99244 31.8078 7.44739C33.7792 8.90235 35.2324 10.9509 35.9539 13.2925C36.6755 15.6341 36.6274 18.1452 35.8168 20.4575C35.0063 22.7697 33.4758 24.7613 31.4502 26.1397C34.9661 27.4293 38.0157 29.7417 40.2063 32.7792C42.3968 35.8166 43.6282 39.4402 43.7418 43.1835C43.7525 43.3913 43.7215 43.5991 43.6507 43.7947C43.58 43.9904 43.4708 44.1699 43.3298 44.3228C43.1887 44.4757 43.0185 44.5989 42.8292 44.6852C42.6398 44.7714 42.4352 44.819 42.2272 44.8251C42.0193 44.8312 41.8122 44.7957 41.6181 44.7207C41.4241 44.6457 41.2469 44.5327 41.0971 44.3884C40.9473 44.244 40.8279 44.0711 40.7457 43.88C40.6636 43.6888 40.6205 43.4832 40.6189 43.2752C40.4949 39.2157 38.7951 35.364 35.8797 32.5364C32.9644 29.7088 29.0626 28.1275 25.0012 28.1275C20.9399 28.1275 17.0381 29.7088 14.1227 32.5364C11.2074 35.364 9.50758 39.2157 9.38352 43.2752C9.37108 43.6896 9.19454 44.0821 8.89273 44.3663C8.59091 44.6505 8.18854 44.8032 7.77414 44.7908C7.35974 44.7784 6.96725 44.6018 6.68302 44.3C6.39878 43.9982 6.24608 43.5958 6.25852 43.1814C6.37257 39.4385 7.60413 35.8154 9.79468 32.7783C11.9852 29.7412 15.0346 27.4292 18.5502 26.1397C16.5245 24.7613 14.9941 22.7697 14.1835 20.4575C13.3729 18.1452 13.3249 15.6341 14.0465 13.2925C14.768 10.9509 16.2212 8.90235 18.1926 7.44739C20.1641 5.99244 22.55 5.20775 25.0002 5.2085ZM16.6668 16.6668C16.6668 18.877 17.5448 20.9966 19.1076 22.5594C20.6704 24.1222 22.79 25.0002 25.0002 25.0002C27.2103 25.0002 29.3299 24.1222 30.8927 22.5594C32.4555 20.9966 33.3335 18.877 33.3335 16.6668C33.3335 14.4567 32.4555 12.3371 30.8927 10.7743C29.3299 9.21147 27.2103 8.3335 25.0002 8.3335C22.79 8.3335 20.6704 9.21147 19.1076 10.7743C17.5448 12.3371 16.6668 14.4567 16.6668 16.6668Z" fill="black"/>
</svg>
