<svg width="50" height="50" viewBox="0 0 50 50" fill="none" xmlns="http://www.w3.org/2000/svg">
<path d="M45.3127 43.1033L33.5127 31.3033C36.3483 27.8991 37.7623 23.5328 37.4606 19.1126C37.1589 14.6924 35.1647 10.5586 31.8928 7.57133C28.6209 4.58403 24.3232 2.97314 19.8939 3.07378C15.4645 3.17443 11.2445 4.97885 8.11168 8.11168C4.97885 11.2445 3.17443 15.4645 3.07378 19.8939C2.97314 24.3232 4.58403 28.6209 7.57133 31.8928C10.5586 35.1647 14.6924 37.1589 19.1126 37.4606C23.5328 37.7623 27.8991 36.3483 31.3033 33.5127L43.1033 45.3127L45.3127 43.1033ZM6.25021 20.3127C6.25021 17.5314 7.07496 14.8126 8.62017 12.5C10.1654 10.1874 12.3616 8.38501 14.9312 7.32066C17.5008 6.2563 20.3283 5.97781 23.0562 6.52042C25.784 7.06302 28.2897 8.40235 30.2564 10.369C32.2231 12.3357 33.5624 14.8414 34.105 17.5693C34.6476 20.2971 34.3691 23.1246 33.3048 25.6942C32.2404 28.2638 30.438 30.46 28.1254 32.0053C25.8129 33.5505 23.094 34.3752 20.3127 34.3752C16.5844 34.3711 13.0099 32.8882 10.3736 30.2518C7.73726 27.6155 6.25435 24.041 6.25021 20.3127Z" fill="#560C7B"/>
</svg>
